<svg width="60" height="51" viewBox="0 0 60 51" fill="none" xmlns="http://www.w3.org/2000/svg">
<path d="M53.1234 9.28541L43.2067 16.8729C43.2489 17.106 43.2733 17.3417 43.2795 17.5782C43.2795 18.8445 42.7534 20.0589 41.8169 20.9543C40.8804 21.8497 39.6102 22.3527 38.2858 22.3527C36.9614 22.3527 35.6912 21.8497 34.7547 20.9543C33.8182 20.0589 33.2921 18.8445 33.2921 17.5782C33.2981 17.3413 33.3228 17.1053 33.3659 16.872L23.4482 9.28541C22.4678 9.66966 21.3802 9.72541 20.3625 9.44356L9.80284 19.5397C10.0675 20.502 10.0103 21.5194 9.63949 22.4491C9.26863 23.3788 8.60265 24.1742 7.73499 24.7236C6.86733 25.2731 5.84153 25.549 4.80152 25.5127C3.76152 25.4764 2.75949 25.1297 1.93604 24.5212C1.11259 23.9128 0.509033 23.0731 0.210062 22.12C-0.0889095 21.1669 -0.0682948 20.1483 0.269013 19.207C0.606321 18.2657 1.24339 17.4489 2.09085 16.8714C2.9383 16.2939 3.9536 15.9845 4.9943 15.9867C5.42639 15.9924 5.85585 16.052 6.27186 16.1637L16.8315 6.06757C16.7146 5.66981 16.6524 5.2592 16.6463 4.84608C16.6463 3.57979 17.1724 2.36537 18.1089 1.46997C19.0454 0.57457 20.3156 0.0715399 21.64 0.0715399C22.9645 0.0715399 24.2346 0.57457 25.1711 1.46997C26.1076 2.36537 26.6338 3.57979 26.6338 4.84608C26.6277 5.08293 26.603 5.31901 26.5599 5.55231L36.4766 13.1379C37.6367 12.6909 38.9328 12.6909 40.0929 13.1379L50.0117 5.55132C49.969 5.31828 49.9444 5.08257 49.9378 4.84608C49.9298 3.81611 50.2678 2.81089 50.902 1.97832C51.5362 1.14575 52.4332 0.529802 53.461 0.221113C54.4887 -0.0875749 55.593 -0.0727035 56.6113 0.263539C57.6295 0.599782 58.508 1.23964 59.1175 2.08896C59.7269 2.93828 60.0352 3.95221 59.9968 4.98155C59.9585 6.01089 59.5756 7.00129 58.9045 7.807C58.2334 8.61272 57.3095 9.19121 56.2688 9.45735C55.2281 9.72348 54.1256 9.66321 53.1234 9.28541Z" fill="#3FA5D5"/>
<path d="M41.6149 31.9018H34.9566C34.5151 31.9018 34.0917 32.0695 33.7795 32.3679C33.4674 32.6664 33.292 33.0712 33.292 33.4933V49.4084C33.292 49.8305 33.4674 50.2353 33.7795 50.5338C34.0917 50.8323 34.5151 51 34.9566 51H41.6149C42.0563 51 42.4797 50.8323 42.7919 50.5338C43.1041 50.2353 43.2794 49.8305 43.2794 49.4084V33.4933C43.2794 33.0712 43.1041 32.6664 42.7919 32.3679C42.4797 32.0695 42.0563 31.9018 41.6149 31.9018ZM58.2606 19.1697H51.6023C51.1608 19.1697 50.7374 19.3374 50.4253 19.6358C50.1131 19.9343 49.9377 20.3391 49.9377 20.7612V49.4084C49.9377 49.8305 50.1131 50.2353 50.4253 50.5338C50.7374 50.8323 51.1608 51 51.6023 51H58.2606C58.7021 51 59.1255 50.8323 59.4376 50.5338C59.7498 50.2353 59.9252 49.8305 59.9252 49.4084V20.7612C59.9252 20.3391 59.7498 19.9343 59.4376 19.6358C59.1255 19.3374 58.7021 19.1697 58.2606 19.1697ZM24.9691 19.1697H18.3108C17.8694 19.1697 17.446 19.3374 17.1338 19.6358C16.8216 19.9343 16.6463 20.3391 16.6463 20.7612V49.4084C16.6463 49.8305 16.8216 50.2353 17.1338 50.5338C17.446 50.8323 17.8694 51 18.3108 51H24.9691C25.4106 51 25.834 50.8323 26.1462 50.5338C26.4583 50.2353 26.6337 49.8305 26.6337 49.4084V20.7612C26.6337 20.3391 26.4583 19.9343 26.1462 19.6358C25.834 19.3374 25.4106 19.1697 24.9691 19.1697ZM8.3234 35.0848H1.66511C1.22363 35.0848 0.800244 35.2525 0.488076 35.551C0.175908 35.8494 0.000534058 36.2542 0.000534058 36.6763L0.000534058 49.4084C0.000534058 49.8305 0.175908 50.2353 0.488076 50.5338C0.800244 50.8323 1.22363 51 1.66511 51H8.3234C8.76487 51 9.18826 50.8323 9.50043 50.5338C9.8126 50.2353 9.98797 49.8305 9.98797 49.4084V36.6763C9.98797 36.2542 9.8126 35.8494 9.50043 35.551C9.18826 35.2525 8.76487 35.0848 8.3234 35.0848Z" fill="#2A86B1"/>
</svg>
