<svg width="40" height="47" viewBox="0 0 40 47" fill="none" xmlns="http://www.w3.org/2000/svg">
<path d="M38.9286 15.1058C39.5179 15.1058 40 14.6236 40 14.0344V10.4629C40 9.87364 39.5179 9.3915 38.9286 9.3915H37.1429V6.53436C37.1429 3.38257 34.5804 0.820068 31.4286 0.820068H5.71429C2.5625 0.820068 0 3.38257 0 6.53436V40.8201C0 43.9719 2.5625 46.5344 5.71429 46.5344H31.4286C34.5804 46.5344 37.1429 43.9719 37.1429 40.8201V37.9629H38.9286C39.5179 37.9629 40 37.4808 40 36.8915V33.3201C40 32.7308 39.5179 32.2486 38.9286 32.2486H37.1429V26.5344H38.9286C39.5179 26.5344 40 26.0522 40 25.4629V21.8915C40 21.3022 39.5179 20.8201 38.9286 20.8201H37.1429V15.1058H38.9286ZM34.2857 40.8201C34.2857 42.3915 33 43.6772 31.4286 43.6772H5.71429C4.14286 43.6772 2.85714 42.3915 2.85714 40.8201V6.53436C2.85714 4.96293 4.14286 3.67721 5.71429 3.67721H31.4286C33 3.67721 34.2857 4.96293 34.2857 6.53436V40.8201ZM18.5714 25.1058C22.5179 25.1058 25.7143 21.9094 25.7143 17.9629C25.7143 14.0165 22.5179 10.8201 18.5714 10.8201C14.625 10.8201 11.4286 14.0165 11.4286 17.9629C11.4286 21.9094 14.625 25.1058 18.5714 25.1058ZM18.5714 13.6772C20.9375 13.6772 22.8571 15.5969 22.8571 17.9629C22.8571 20.329 20.9375 22.2486 18.5714 22.2486C16.2054 22.2486 14.2857 20.329 14.2857 17.9629C14.2857 15.5969 16.2054 13.6772 18.5714 13.6772ZM22.75 26.5344C21.0089 26.5344 20.5714 27.1594 18.5714 27.1594C16.5714 27.1594 16.1339 26.5344 14.3929 26.5344C12.5 26.5344 10.6607 27.3736 9.58929 28.9808C8.94643 29.9361 8.57143 31.0879 8.57143 32.329V35.8201C8.57143 36.2129 8.89286 36.5344 9.28571 36.5344H10.7143C11.1071 36.5344 11.4286 36.2129 11.4286 35.8201V32.329C11.4286 31.704 11.6161 31.0969 11.9643 30.579C12.4643 29.8379 13.375 29.4004 14.4018 29.4004C15.5089 29.4004 16.2589 30.0254 18.5804 30.0254C20.8929 30.0254 21.6429 29.4004 22.7589 29.4004C23.7857 29.4004 24.6964 29.8469 25.1964 30.579C25.5446 31.0969 25.7321 31.704 25.7321 32.329V35.8201C25.7321 36.2129 26.0536 36.5344 26.4464 36.5344H27.875C28.2679 36.5344 28.5893 36.2129 28.5893 35.8201V32.329C28.5893 31.0879 28.2143 29.9361 27.5714 28.9808C26.4732 27.3736 24.6339 26.5344 22.75 26.5344Z" fill="#939393"/>
</svg>
