<svg width="40" height="46" viewBox="0 0 40 46" fill="none" xmlns="http://www.w3.org/2000/svg">
<path d="M28.5714 31.5384H28.1518C27.0661 31.5384 26.0089 31.7974 24.9821 32.1456C21.75 33.242 18.2465 33.242 15.0143 32.1456C13.9893 31.7974 12.9348 31.5402 11.8518 31.5402H11.4286C8.39784 31.5402 5.4912 32.7441 3.34798 34.8869C1.20476 37.0298 0.000473553 39.9363 0 42.967C0 43.7248 0.30102 44.4515 0.836838 44.9873C1.37266 45.5231 2.09938 45.8242 2.85714 45.8242H37.1429C37.9006 45.8242 38.6273 45.5231 39.1632 44.9873C39.699 44.4515 40 43.7248 40 42.967C40 39.936 38.7959 37.0291 36.6526 34.8858C34.5094 32.7425 31.6025 31.5384 28.5714 31.5384ZM2.85714 42.967C2.85951 40.6945 3.76332 38.5157 5.37027 36.9087C6.97721 35.3018 9.15601 34.3979 11.4286 34.3956H11.8518C12.4696 34.3956 13.1839 34.5402 14.0982 34.85C17.9245 36.1477 22.0719 36.1477 25.8982 34.85C26.8188 34.5384 27.5348 34.3938 28.1518 34.3938H28.5714C30.844 34.3962 33.0228 35.3 34.6297 36.9069C36.2367 38.5139 37.1405 40.6927 37.1429 42.9652L2.85714 42.967ZM4.28571 20.1099C4.6646 20.1099 5.02796 19.9594 5.29587 19.6914C5.56378 19.4235 5.71429 19.0602 5.71429 18.6813V17.2527C5.71429 9.37594 12.1232 2.96701 20 2.96701C27.8768 2.96701 34.2857 9.37594 34.2857 17.2527V18.6813C34.2836 20.575 33.5304 22.3906 32.1913 23.7297C30.8522 25.0688 29.0366 25.822 27.1429 25.8242H24.2857C24.2857 25.0664 23.9847 24.3397 23.4489 23.8038C22.9131 23.268 22.1863 22.967 21.4286 22.967H18.5714C17.8137 22.967 17.0869 23.268 16.5511 23.8038C16.0153 24.3397 15.7143 25.0664 15.7143 25.8242C15.7143 26.5819 16.0153 27.3086 16.5511 27.8445C17.0869 28.3803 17.8137 28.6813 18.5714 28.6813H27.1429C29.794 28.678 32.3356 27.6234 34.2103 25.7487C36.0849 23.8741 37.1395 21.3324 37.1429 18.6813V17.2527C37.1429 7.79915 29.4536 0.109863 20 0.109863C10.5464 0.109863 2.85714 7.79915 2.85714 17.2527V18.6813C2.85714 19.0602 3.00765 19.4235 3.27556 19.6914C3.54347 19.9594 3.90683 20.1099 4.28571 20.1099ZM20 8.68129C21.6553 8.67391 23.2771 9.14817 24.6676 10.0463C26.0582 10.9444 27.1575 12.2276 27.8316 13.7395C28.5057 15.2514 28.7254 16.9267 28.4641 18.5613C28.2028 20.1959 27.4717 21.7192 26.3598 22.9456C26.3598 22.9536 26.3714 22.959 26.3759 22.967H27.1429C27.8678 22.9654 28.5803 22.7796 29.2137 22.4269C29.847 22.0742 30.3803 21.5663 30.7634 20.9509C31.1607 19.7849 31.4286 18.5545 31.4286 17.2527C31.4286 14.2217 30.2245 11.3148 28.0812 9.1715C25.9379 7.02823 23.031 5.82415 20 5.82415C16.969 5.82415 14.0621 7.02823 11.9188 9.1715C9.77551 11.3148 8.57143 14.2217 8.57143 17.2527C8.57143 20.8617 10.2768 24.0384 12.8884 26.134C12.883 26.0295 12.8571 25.9304 12.8571 25.8242C12.8636 24.8177 13.1388 23.8313 13.6545 22.967C12.5369 21.7421 11.8004 20.2182 11.5349 18.5815C11.2694 16.9448 11.4865 15.2662 12.1596 13.7508C12.8327 12.2355 13.9326 10.9491 15.325 10.0488C16.7174 9.14846 18.3419 8.67327 20 8.68129Z" fill="#939393"/>
</svg>
